<svg width="217" height="125" viewBox="0 0 217 125" fill="none" xmlns="http://www.w3.org/2000/svg">
<path d="M216.793 62.6948C216.786 74.1287 213.029 85.3402 205.935 95.1008C198.841 104.861 188.684 112.794 176.575 118.03C175.866 118.342 175.146 118.64 174.42 118.928C174.094 119.062 173.774 119.187 173.443 119.312C171.374 120.108 169.251 120.823 167.075 121.456C165.36 121.96 163.6 122.416 161.822 122.81C145.032 126.563 127.206 125.261 111.441 119.129C110.795 118.875 110.149 118.616 109.515 118.347C97.7111 113.391 87.698 105.878 80.5102 96.5863C73.3224 87.2943 69.2204 76.5597 68.6282 65.4917C68.0359 54.4236 70.9748 43.4235 77.1412 33.6279C83.3076 23.8324 92.4778 15.5966 103.704 9.77167C114.931 3.9467 127.807 0.74379 141.001 0.493864C154.196 0.243938 167.231 2.95606 178.759 8.35002C190.287 13.744 199.89 21.6241 206.577 31.1762C213.263 40.7283 216.79 51.606 216.793 62.6852V62.6948Z" fill="url(#paint0_linear_1_597)"/>
<path d="M113.619 101.101L105.433 90.3674C105.433 90.3674 128.109 68.3618 130.378 67.0614C130.378 67.0614 118.94 83.1697 113.619 101.101Z" fill="url(#paint1_linear_1_597)"/>
<path d="M105.433 90.3674L89.9999 101.884L61.6084 90.3674L39.8875 91.3654C39.8875 91.3654 53.4173 95.2042 57.2242 95.0458L61.0368 94.8875C61.0368 94.8875 84.3525 113.76 89.7141 115.199C95.0758 116.639 112.687 105.353 112.687 105.353L113.71 101.135L105.433 90.3674Z" fill="url(#paint2_linear_1_597)"/>
<path d="M148.018 64.4559C145.873 65.3276 143.567 65.8858 141.199 66.1066C138.461 66.452 134.299 65.1757 134.299 65.1757C137.443 63.0979 136.711 58.1987 136.711 58.1987L136.78 58.1699C140.135 57.954 142.942 56.3561 144.903 54.811C144.194 59.0049 148.018 64.4559 148.018 64.4559Z" fill="url(#paint3_linear_1_597)"/>
<path d="M148.018 48.8513V51.7304C147.124 52.8489 146.081 53.8777 144.908 54.7966C142.948 56.3465 140.141 57.9444 136.786 58.1555C135.262 58.2533 133.731 58.0648 132.304 57.6037C123.159 54.7246 129.589 39.4896 129.589 39.4896C132.493 33.29 145.64 36.289 145.64 36.289C147.401 38.0501 147.738 42.9685 147.669 43.4483C147.376 44.1224 146.993 44.7664 146.526 45.3677C146.526 45.3677 149.024 43.3907 149.881 44.7055C150.739 46.0203 148.018 48.8513 148.018 48.8513Z" fill="url(#paint4_linear_1_597)"/>
<path d="M148.018 51.74V48.861C148.018 48.861 150.733 46.0539 149.876 44.7295C149.018 43.4051 146.52 45.3917 146.52 45.3917C146.987 44.7904 147.37 44.1465 147.664 43.4723C147.732 42.9925 147.446 38.3524 145.634 36.313C145.634 36.313 132.487 33.314 129.584 39.5136C129.584 39.5136 125.823 38.7123 122.582 34.9551C117.283 28.8083 123.61 28.0549 129.881 29.2401C137.489 30.6797 145.114 25.958 153.831 30.7565C162.548 35.5549 154.734 46.4617 148.018 51.74Z" fill="#262F72"/>
<g filter="url(#filter0_d_1_597)">
<path d="M88.1823 24.9503H14.0167C12.2236 24.9503 10.77 26.1706 10.77 27.6758V85.0843C10.77 86.5896 12.2236 87.8098 14.0167 87.8098H88.1823C89.9754 87.8098 91.429 86.5896 91.429 85.0843V27.6758C91.429 26.1706 89.9754 24.9503 88.1823 24.9503Z" fill="white"/>
</g>
<path d="M23.1223 36.3418C22.9164 36.5374 22.6519 36.6831 22.3563 36.764C22.0036 36.8668 21.6322 36.9171 21.2589 36.9128C20.8714 36.9202 20.4886 36.8407 20.15 36.6825C19.8291 36.5261 19.5721 36.2919 19.4126 36.0107C19.2309 35.6867 19.1391 35.3323 19.1439 34.9742V34.6959C19.1335 34.3317 19.2174 33.9699 19.3897 33.6355C19.5378 33.3518 19.785 33.1125 20.0985 32.9493C20.4779 32.7768 20.9067 32.6959 21.3374 32.7154C21.7682 32.7348 22.1842 32.854 22.5393 33.0596C22.8802 33.3214 23.0854 33.6849 23.1109 34.0721H22.1334C22.1113 33.8765 22.0057 33.6942 21.8362 33.5587C21.6565 33.4431 21.4335 33.3852 21.2074 33.3955C21.055 33.3884 20.903 33.4142 20.7659 33.4705C20.6288 33.5268 20.5112 33.6117 20.4243 33.717C20.2237 34.0076 20.1302 34.3416 20.1557 34.6767V34.9358C20.1309 35.2735 20.2329 35.6091 20.4472 35.8955C20.5461 36.005 20.6754 36.0924 20.8239 36.1501C20.9724 36.2079 21.1355 36.2341 21.2989 36.2266C21.5883 36.2478 21.8764 36.1758 22.1048 36.0251V35.3197H21.1903V34.7007H23.1109L23.1223 36.3418Z" fill="#64B5F6"/>
<path d="M81.8948 32.7094H29.3415C28.7007 32.7094 28.1812 33.1455 28.1812 33.6834V37.2247C28.1812 37.7627 28.7007 38.1988 29.3415 38.1988H81.8948C82.5356 38.1988 83.0551 37.7627 83.0551 37.2247V33.6834C83.0551 33.1455 82.5356 32.7094 81.8948 32.7094Z" fill="#E7EEF2"/>
<path d="M83.0551 41.2986H28.1812V42.2583H83.0551V41.2986Z" fill="#BBDEFB"/>
<path d="M83.0551 43.4579H28.1812V44.4176H83.0551V43.4579Z" fill="#E7E8E9"/>
<path d="M83.0551 45.6172H28.1812V46.5769H83.0551V45.6172Z" fill="#E7E8E9"/>
<path d="M83.0551 47.7765H28.1812V48.7362H83.0551V47.7765Z" fill="#E7E8E9"/>
<path d="M83.0551 51.8168H28.1812V52.7765H83.0551V51.8168Z" fill="#BBDEFB"/>
<path d="M83.0551 53.9761H28.1812V54.9358H83.0551V53.9761Z" fill="#E7E8E9"/>
<path d="M83.0551 56.1354H28.1812V57.0951H83.0551V56.1354Z" fill="#E7E8E9"/>
<path d="M83.0551 58.2947H28.1812V59.2544H83.0551V58.2947Z" fill="#E7E8E9"/>
<path d="M83.0551 62.215H28.1812V63.1747H83.0551V62.215Z" fill="#BBDEFB"/>
<path d="M83.0551 64.3743H28.1812V65.334H83.0551V64.3743Z" fill="#E7E8E9"/>
<path d="M83.0551 66.5336H28.1812V67.4933H83.0551V66.5336Z" fill="#E7E8E9"/>
<path d="M83.0551 68.6929H28.1812V69.6526H83.0551V68.6929Z" fill="#E7E8E9"/>
<path d="M83.0551 72.6132H28.1812V73.5728H83.0551V72.6132Z" fill="#BBDEFB"/>
<path d="M83.0551 74.7725H28.1812V75.7322H83.0551V74.7725Z" fill="#E7E8E9"/>
<path d="M83.0551 76.9318H28.1812V77.8914H83.0551V76.9318Z" fill="#E7E8E9"/>
<path d="M83.0551 79.0911H28.1812V80.0508H83.0551V79.0911Z" fill="#E7E8E9"/>
<path d="M167.79 87.6371C171.699 97.4067 174.597 108.717 176.575 118.03C175.866 118.342 175.146 118.64 174.42 118.928C174.094 119.062 173.774 119.187 173.443 119.312C171.374 120.108 169.251 120.823 167.075 121.456C165.36 121.96 163.6 122.416 161.822 122.81C145.032 126.563 127.206 125.261 111.441 119.129C110.795 118.875 110.149 118.616 109.515 118.347C110.658 113.419 112.018 107.627 113.613 101.106C114.192 98.7423 114.8 96.2823 115.436 93.7263C118.712 80.6314 123.41 73.5009 127.292 69.6381L127.332 69.5998C128.069 68.8654 128.867 68.1759 129.721 67.5364C129.745 67.5132 129.772 67.4923 129.801 67.474C129.995 67.3301 130.19 67.1957 130.372 67.0662C132.71 65.4683 134.299 65.1756 134.299 65.1756L134.442 65.2188H134.522C135.764 65.6298 137.065 65.8993 138.392 66.0201H138.615H138.649C139.497 66.0882 140.349 66.0994 141.199 66.0537H141.25C143.609 65.9275 145.907 65.3707 147.984 64.4222C150.418 65.0983 152.712 66.0908 154.78 67.3637C160.69 71.0057 172.597 84.3598 172.597 84.3598L167.79 87.6371Z" fill="url(#paint5_linear_1_597)"/>
<path d="M189.562 105.871C189.528 107.205 188.082 109.911 185.967 113.194C182.983 115.001 179.842 116.618 176.569 118.03C175.861 118.342 175.14 118.64 174.415 118.928C174.089 119.062 173.769 119.187 173.437 119.312C171.368 120.108 169.245 120.823 167.069 121.456L172.591 106.682L158.301 94.0862L167.784 87.6371L172.591 84.3694C172.591 84.3694 189.711 100.713 189.562 105.871Z" fill="url(#paint6_linear_1_597)"/>
<defs>
<filter id="filter0_d_1_597" x="0.77002" y="18.9503" width="100.659" height="82.8595" filterUnits="userSpaceOnUse" color-interpolation-filters="sRGB">
<feFlood flood-opacity="0" result="BackgroundImageFix"/>
<feColorMatrix in="SourceAlpha" type="matrix" values="0 0 0 0 0 0 0 0 0 0 0 0 0 0 0 0 0 0 127 0" result="hardAlpha"/>
<feOffset dy="4"/>
<feGaussianBlur stdDeviation="5"/>
<feColorMatrix type="matrix" values="0 0 0 0 0 0 0 0 0 0 0 0 0 0 0 0 0 0 0.15 0"/>
<feBlend mode="normal" in2="BackgroundImageFix" result="effect1_dropShadow_1_597"/>
<feBlend mode="normal" in="SourceGraphic" in2="effect1_dropShadow_1_597" result="shape"/>
</filter>
<linearGradient id="paint0_linear_1_597" x1="142.978" y1="7.2348" x2="141.191" y2="129.884" gradientUnits="userSpaceOnUse">
<stop stop-color="white" stop-opacity="0"/>
<stop offset="1" stop-color="#64B5F6" stop-opacity="0.6"/>
</linearGradient>
<linearGradient id="paint1_linear_1_597" x1="119.706" y1="64.7773" x2="116.675" y2="98.1207" gradientUnits="userSpaceOnUse">
<stop stop-color="#42A5F5"/>
<stop offset="1" stop-color="#1565C0"/>
</linearGradient>
<linearGradient id="paint2_linear_1_597" x1="70.2396" y1="99.7627" x2="117.342" y2="107.199" gradientUnits="userSpaceOnUse">
<stop stop-color="#FFE082"/>
<stop offset="1" stop-color="#FFA726"/>
</linearGradient>
<linearGradient id="paint3_linear_1_597" x1="10660.6" y1="2399.13" x2="10663" y2="2183.38" gradientUnits="userSpaceOnUse">
<stop stop-color="#FFE082"/>
<stop offset="1" stop-color="#FFA726"/>
</linearGradient>
<linearGradient id="paint4_linear_1_597" x1="16965.5" y1="3842.65" x2="17863.4" y2="3842.65" gradientUnits="userSpaceOnUse">
<stop stop-color="#FFE082"/>
<stop offset="1" stop-color="#FFA726"/>
</linearGradient>
<linearGradient id="paint5_linear_1_597" x1="48618.5" y1="14238.3" x2="54127" y2="20596.3" gradientUnits="userSpaceOnUse">
<stop stop-color="#42A5F5"/>
<stop offset="1" stop-color="#1565C0"/>
</linearGradient>
<linearGradient id="paint6_linear_1_597" x1="26047.3" y1="11563.2" x2="25728.2" y2="9170.64" gradientUnits="userSpaceOnUse">
<stop stop-color="#FFE082"/>
<stop offset="1" stop-color="#FFA726"/>
</linearGradient>
</defs>
</svg>
