<svg width="159" height="130" viewBox="0 0 159 130" fill="none" xmlns="http://www.w3.org/2000/svg">
<path d="M151.094 62.5573C151.103 71.2121 148.932 79.7729 144.718 87.6912C140.505 95.6095 134.343 102.711 126.627 108.539C124.48 110.162 122.224 111.682 119.868 113.091C116.845 114.9 113.662 116.518 110.347 117.932H110.313C109.606 118.239 108.888 118.532 108.164 118.815C107.834 118.95 107.51 119.074 107.174 119.199C105.077 119.996 102.927 120.712 100.722 121.346C98.985 121.826 97.2013 122.306 95.4003 122.7C85.0112 124.991 74.1514 125.415 63.5486 123.943C62.2919 123.771 61.0526 123.574 59.8191 123.348L58.7766 123.151C55.6299 122.541 52.5347 121.762 49.5107 120.817C47.754 120.27 46.0321 119.67 44.3449 119.017C43.6905 118.762 43.0361 118.503 42.3933 118.234C41.9532 118.052 41.5188 117.864 41.0845 117.677C29.301 112.546 19.374 104.911 12.3198 95.5524C5.26568 86.1942 1.33795 75.4497 0.938812 64.419C0.539672 53.3883 3.68348 42.4679 10.0483 32.7759C16.4131 23.0839 25.7702 14.9687 37.1615 9.26116C48.5528 3.55364 61.5689 0.458944 74.877 0.293949C88.1851 0.128954 101.307 2.8996 112.899 8.32217C124.491 13.7447 134.137 21.6244 140.848 31.1542C147.559 40.6841 151.096 51.5217 151.094 62.5573Z" fill="url(#paint0_linear_1_575)"/>
<path d="M95.6782 67.0614C100.462 71.1429 114.395 87.0272 114.395 87.0272L105.836 97.4327L98.1395 76.761L95.6782 67.0614Z" fill="url(#paint1_linear_1_575)"/>
<path d="M110.313 117.965C109.606 118.272 108.888 118.565 108.164 118.849C107.834 118.983 107.51 119.108 107.174 119.233C105.077 120.03 102.927 120.745 100.722 121.379C98.985 121.859 97.2014 122.339 95.4003 122.733C85.0112 125.025 74.1515 125.449 63.5486 123.977C62.2919 123.804 61.0526 123.607 59.8191 123.381C55.3019 125.965 51.1322 128.15 48.3698 129.144L48.5957 127.545L49.5339 120.856L51.7056 105.293L60.3113 98.393L40.9629 99.6366C40.9629 99.6366 42.9956 76.2519 50.9296 71.4405C58.8635 66.6291 67.1855 62.3171 67.1855 62.3171C68.1784 62.86 69.272 63.2639 70.4228 63.5128C73.1747 64.1435 76.035 64.3854 78.8837 64.2282C82.2774 64.0986 85.671 61.4816 85.8332 61.3472C85.8332 61.3472 91.1611 62.2259 95.6783 67.0805C97.9312 69.5795 99.5487 72.4318 100.433 75.4644C101.545 79.013 103.52 87.3008 105.767 97.3126C107.238 103.757 108.784 110.902 110.313 117.965Z" fill="url(#paint2_linear_1_575)"/>
<path d="M114.396 87.0465L122.654 95.0703L151.697 71.167L152.797 66.2739L158.588 62.1012L156.011 68.4636V76.7514C156.011 76.7514 133.611 106.859 127.437 108.41C120.216 110.229 105.848 97.4231 105.848 97.4231L114.396 87.0465Z" fill="url(#paint3_linear_1_575)"/>
<path d="M84.2466 98.0185L90.9818 111.464L99.686 108.362L93.304 95.2047L84.2466 98.0185Z" fill="#7E57C2"/>
<path d="M93.6283 106.705C92.5454 107.444 90.9296 107.271 88.9259 107.358C86.2338 107.417 83.6518 108.256 81.6289 109.73C78.936 111.607 71.4074 116.52 63.8789 121.005C62.5121 121.816 61.1454 122.618 59.825 123.405C55.3079 125.989 51.1382 128.174 48.3758 129.168C47.6495 129.466 46.8653 129.657 46.0593 129.729C42.1908 129.811 41.3626 123.089 41.1252 117.725C41.0499 115.943 41.0325 114.316 40.992 113.139C40.8298 108.434 40.992 99.6943 40.992 99.6943L60.3404 98.4458L58.2903 109.557L57.9313 111.521V111.535L63.7225 109.759L63.902 109.706L84.4608 103.372L85.8797 101.341L86.7831 103.262H86.87L95.6726 102.302C95.6726 102.302 95.8232 105.212 93.6283 106.705Z" fill="url(#paint4_linear_1_575)"/>
<path d="M89.1863 36.6278C88.6825 35.4849 88.2481 34.707 88.1207 34.4765V34.4189C88.1207 34.4189 87.6748 35.3313 84.3159 35.1104C80.957 34.8895 79.8451 33.5066 79.8451 33.5066C79.8451 33.5066 80.8991 36.5029 76.8973 37.785C73.0462 39.0238 71.5289 38.222 71.4246 38.1643C71.6273 38.3468 74.6388 41.0166 72.6408 43.1342C70.5733 45.3286 65.923 44.8964 65.923 44.8964V44.9253C66.5082 46.0242 67.1635 47.0964 67.8862 48.1376C68.2684 48.685 68.6449 49.1892 69.0444 49.6598V49.6934C70.07 51.0768 71.455 52.253 73.0983 53.1363C72.376 56.6502 70.3017 59.8761 67.1855 62.3317C68.2338 62.7853 69.3149 63.1846 70.4228 63.5274C72.5829 64.2044 75.4843 64.8767 78.073 64.6894C81.0724 64.4235 83.8441 63.2385 85.8448 61.3666L84.5186 57.1458L83.3256 53.3428C94.1088 51.0619 91.1437 41.1414 89.1863 36.6278ZM82.7233 53.482L82.9144 53.4436L83.2213 53.3716C82.7747 53.5318 82.3028 53.6385 81.8199 53.6885C82.0689 53.6357 82.3237 53.578 82.5901 53.5108L82.7233 53.482Z" fill="url(#paint5_linear_1_575)"/>
<path d="M95.6782 34.294C91.2305 37.6841 89.3078 36.7285 89.1862 36.6373V36.6277C88.6824 35.4848 88.248 34.7069 88.1264 34.4765L88.0975 34.4188C88.0975 34.4188 87.6457 35.3312 84.2868 35.1103C80.9279 34.8894 79.8218 33.5065 79.8218 33.5065C79.8218 33.5065 80.8758 36.5028 76.8741 37.7849C73.0171 39.0238 71.4998 38.2219 71.4014 38.1642C71.6041 38.3419 74.6155 41.0117 72.6175 43.1293C70.5501 45.3237 65.8997 44.8963 65.8997 44.8963V44.9204C66.4848 46.0209 67.1401 47.0948 67.8629 48.1375C68.249 48.6817 68.6351 49.1891 69.0212 49.6597V49.6933C69.0212 49.6933 67.4344 52.2815 64.6025 52.2287C61.7706 52.1758 61.7069 49.8278 61.7069 49.8278C61.7069 49.8278 59.7031 52.8241 53.5123 49.9382C47.3215 47.0523 51.4506 42.87 51.4506 42.87C51.4506 42.87 47.0609 40.085 47.0609 35.9122C47.0609 31.7395 53.8945 28.5655 53.8945 28.5655C53.8945 28.5655 51.4506 23.7205 55.574 21.0507C59.6973 18.3809 65.8939 20.1912 65.8939 20.1912C65.8939 20.1912 65.7723 13.9921 72.0847 14.0929C78.3972 14.1937 79.8276 17.3965 79.8276 17.3965C79.8276 17.3965 85.503 13.7568 91.1205 17.1852C96.7379 20.6137 94.4272 26.5919 94.4272 26.5919C94.4272 26.5919 100.317 30.7647 95.6782 34.294Z" fill="url(#paint6_linear_1_575)"/>
<path opacity="0.15" d="M84.5651 57.1312C81.8722 56.4253 77.0829 53.7315 77.0829 53.7315C78.9729 53.8971 80.8827 53.8128 82.7409 53.4818L82.932 53.4434L83.3027 53.3522H83.3548L84.5651 57.1312Z" fill="black"/>
<path opacity="0.15" d="M62.923 84.0309L60.3112 98.4362L58.2611 109.548L53.4891 112.837L63.8728 109.711C63.8728 109.711 61.1799 103.334 62.923 84.0309Z" fill="black"/>
<path opacity="0.15" d="M59.8075 123.381C61.041 123.607 62.2803 123.804 63.537 123.977C63.6007 122.993 63.7166 121.999 63.8787 121.005L59.8075 123.381Z" fill="black"/>
<defs>
<linearGradient id="paint0_linear_1_575" x1="76.3079" y1="7.04819" x2="74.542" y2="129.778" gradientUnits="userSpaceOnUse">
<stop stop-color="white" stop-opacity="0"/>
<stop offset="1" stop-color="#64B5F6" stop-opacity="0.6"/>
</linearGradient>
<linearGradient id="paint1_linear_1_575" x1="90.0086" y1="62.9367" x2="105.42" y2="95.5985" gradientUnits="userSpaceOnUse">
<stop stop-color="#E57373"/>
<stop offset="1" stop-color="#AD1457"/>
</linearGradient>
<linearGradient id="paint2_linear_1_575" x1="31706.1" y1="37439.5" x2="30183.7" y2="46501.2" gradientUnits="userSpaceOnUse">
<stop stop-color="#E57373"/>
<stop offset="1" stop-color="#AD1457"/>
</linearGradient>
<linearGradient id="paint3_linear_1_575" x1="166.447" y1="74.0336" x2="116.088" y2="109.219" gradientUnits="userSpaceOnUse">
<stop stop-color="#FFF8E1"/>
<stop offset="1" stop-color="#FFCC80"/>
</linearGradient>
<linearGradient id="paint4_linear_1_575" x1="24381.1" y1="20970.1" x2="21729.8" y2="18814" gradientUnits="userSpaceOnUse">
<stop stop-color="#FFF8E1"/>
<stop offset="1" stop-color="#FFCC80"/>
</linearGradient>
<linearGradient id="paint5_linear_1_575" x1="94.8559" y1="41.5176" x2="66.1593" y2="55.7707" gradientUnits="userSpaceOnUse">
<stop stop-color="#FFF8E1"/>
<stop offset="1" stop-color="#FFCC80"/>
</linearGradient>
<linearGradient id="paint6_linear_1_575" x1="87.8368" y1="13.9104" x2="60.1632" y2="59.0073" gradientUnits="userSpaceOnUse">
<stop stop-color="#FFB74D"/>
<stop offset="1" stop-color="#F4511E"/>
</linearGradient>
</defs>
</svg>
